<svg width="20" height="20" viewBox="0 0 20 20" fill="none" xmlns="http://www.w3.org/2000/svg">
<path fill-rule="evenodd" clip-rule="evenodd" d="M6.0119 1.3051C6.07386 1.26179 6.13846 1.2228 6.20494 1.18833C6.30796 1.07288 6.45806 1 6.62493 1H13.3749C13.3903 1 13.4058 1.00075 13.4208 1.00188C13.4568 1.0049 13.4918 1.01111 13.5255 1.02053C13.631 1.04972 13.7241 1.10886 13.7949 1.18834C13.8615 1.2228 13.9261 1.26179 13.9881 1.30511L16.2269 2.87225C16.5037 3.06605 16.716 3.33839 16.8361 3.65404L17.6319 5.74286C16.9034 5.23512 16.0177 4.93754 15.0624 4.93754C12.5771 4.93754 10.5625 6.95216 10.5625 9.43745C10.5625 11.9227 12.5771 13.9375 15.0624 13.9375C15.6592 13.9375 16.2287 13.8213 16.7501 13.6104V17.3125C16.7501 18.2444 15.9945 19 15.0626 19H4.93767C4.00559 19 3.25018 18.2444 3.25018 17.3125V10.9102L1.31106 9.94084C1.05248 9.81164 0.934015 9.50748 1.03703 9.2374L3.1639 3.65423C3.28424 3.33857 3.49631 3.06626 3.77317 2.87244L6.0119 1.3051ZM9.99991 4.37498C8.63936 4.37498 7.50426 3.40882 7.24381 2.12513H12.7561C12.4955 3.40882 11.3606 4.37498 9.99982 4.37498H9.99991Z" fill="#007EFF"/>
<path fill-rule="evenodd" clip-rule="evenodd" d="M15.0622 5.50018C12.8876 5.50018 11.1246 7.26298 11.1246 9.43753C11.1246 11.6122 12.8876 13.3751 15.0622 13.3751C17.2367 13.3751 18.9997 11.6123 18.9997 9.43753C18.9997 7.26298 17.2367 5.50018 15.0622 5.50018ZM14.6751 10.9773L17.1297 8.72743C17.3587 8.51744 17.3742 8.16169 17.1644 7.93267C16.9544 7.70366 16.5986 7.68821 16.3696 7.89802L14.2951 9.79962L13.7548 9.30432C13.5258 9.09452 13.17 9.10996 12.9602 9.33898C12.7502 9.56781 12.7657 9.92376 12.9947 10.1335L13.9151 10.9773C14.1302 11.1745 14.4603 11.1745 14.6752 10.9773H14.6751Z" fill="#007EFF"/>
</svg>
