<svg width="20" height="20" viewBox="0 0 20 20" fill="none" xmlns="http://www.w3.org/2000/svg">
<path d="M7.42857 3.85714H12.5714V2.42857H7.42857V3.85714ZM3.89286 3.85714V18.1429H3.25C2.63393 18.1429 2.10491 17.8973 1.66295 17.4062C1.22098 16.9152 1 16.3274 1 15.6429V6.35714C1 5.67262 1.22098 5.08482 1.66295 4.59375C2.10491 4.10268 2.63393 3.85714 3.25 3.85714H3.89286ZM15.1429 3.85714V18.1429H4.85714V3.85714H6.14286V2.07143C6.14286 1.77381 6.23661 1.52083 6.42411 1.3125C6.61161 1.10417 6.83929 1 7.10714 1H12.8929C13.1607 1 13.3884 1.10417 13.5759 1.3125C13.7634 1.52083 13.8571 1.77381 13.8571 2.07143V3.85714H15.1429ZM19 6.35714V15.6429C19 16.3274 18.779 16.9152 18.3371 17.4062C17.8951 17.8973 17.3661 18.1429 16.75 18.1429H16.1071V3.85714H16.75C17.3661 3.85714 17.8951 4.10268 18.3371 4.59375C18.779 5.08482 19 5.67262 19 6.35714Z" fill="#007EFF"/>
</svg>
