<svg width="45" height="45" viewBox="0 0 45 45" fill="none" xmlns="http://www.w3.org/2000/svg">
<rect opacity="0.3" width="45" height="45" rx="8" fill="#007EFF"/>
<path d="M32 13H12C10.625 13 9.5125 14.125 9.5125 15.5L9.5 30.5C9.5 31.875 10.625 33 12 33H32C33.375 33 34.5 31.875 34.5 30.5V15.5C34.5 14.125 33.375 13 32 13ZM31.5 18.3125L22.6625 23.8375C22.2625 24.0875 21.7375 24.0875 21.3375 23.8375L12.5 18.3125C12.3747 18.2421 12.2649 18.1471 12.1774 18.0331C12.0898 17.9191 12.0263 17.7885 11.9907 17.6492C11.9551 17.51 11.9481 17.3649 11.9702 17.2229C11.9923 17.0808 12.0429 16.9448 12.1191 16.8229C12.1953 16.701 12.2954 16.5958 12.4134 16.5137C12.5314 16.4317 12.6648 16.3744 12.8056 16.3454C12.9464 16.3164 13.0916 16.3162 13.2324 16.3449C13.3733 16.3737 13.5068 16.4307 13.625 16.5125L22 21.75L30.375 16.5125C30.4932 16.4307 30.6267 16.3737 30.7676 16.3449C30.9084 16.3162 31.0536 16.3164 31.1944 16.3454C31.3352 16.3744 31.4686 16.4317 31.5866 16.5137C31.7046 16.5958 31.8047 16.701 31.8809 16.8229C31.9571 16.9448 32.0077 17.0808 32.0298 17.2229C32.0519 17.3649 32.0449 17.51 32.0093 17.6492C31.9737 17.7885 31.9102 17.9191 31.8226 18.0331C31.7351 18.1471 31.6253 18.2421 31.5 18.3125Z" fill="#007EFF"/>
</svg>
