<svg width="45" height="45" viewBox="0 0 45 45" fill="none" xmlns="http://www.w3.org/2000/svg">
<rect opacity="0.3" width="45" height="45" rx="8" fill="#007EFF"/>
<g clip-path="url(#clip0_36_2057)">
<path d="M28 25.5C29.6106 25.5001 31.159 26.1219 32.3222 27.2358C33.4855 28.3497 34.1739 29.8697 34.2438 31.4788L34.25 31.75V33C34.2502 33.6307 34.012 34.2382 33.5831 34.7007C33.1543 35.1632 32.5664 35.4464 31.9375 35.4938L31.75 35.5H14.25C13.6193 35.5002 13.0118 35.262 12.5493 34.8331C12.0868 34.4043 11.8036 33.8164 11.7563 33.1875L11.75 33V31.75C11.7501 30.1394 12.3719 28.591 13.4858 27.4278C14.5997 26.2645 16.1197 25.5761 17.7288 25.5063L18 25.5H28ZM23 10.5C24.6576 10.5 26.2473 11.1585 27.4194 12.3306C28.5915 13.5027 29.25 15.0924 29.25 16.75C29.25 18.4076 28.5915 19.9973 27.4194 21.1694C26.2473 22.3415 24.6576 23 23 23C21.3424 23 19.7527 22.3415 18.5806 21.1694C17.4085 19.9973 16.75 18.4076 16.75 16.75C16.75 15.0924 17.4085 13.5027 18.5806 12.3306C19.7527 11.1585 21.3424 10.5 23 10.5Z" fill="#007EFF"/>
</g>
<defs>
<clipPath id="clip0_36_2057">
<rect width="30" height="30" fill="white" transform="translate(8 8)"/>
</clipPath>
</defs>
</svg>
