<svg width="45" height="45" viewBox="0 0 45 45" fill="none" xmlns="http://www.w3.org/2000/svg">
<rect opacity="0.3" width="45" height="45" rx="8" fill="#007EFF"/>
<path d="M14.5 35.5C13.8125 35.5 13.2238 35.255 12.7338 34.765C12.2438 34.275 11.9992 33.6867 12 33V20.5C12 19.8125 12.245 19.2238 12.735 18.7338C13.225 18.2438 13.8133 17.9992 14.5 18H15.75V15.5C15.75 13.7708 16.3596 12.2967 17.5788 11.0775C18.7979 9.85833 20.2717 9.24917 22 9.25C23.7292 9.25 25.2033 9.85958 26.4225 11.0788C27.6417 12.2979 28.2508 13.7717 28.25 15.5V18H29.5C30.1875 18 30.7763 18.245 31.2663 18.735C31.7563 19.225 32.0008 19.8133 32 20.5V33C32 33.6875 31.755 34.2763 31.265 34.7663C30.775 35.2563 30.1867 35.5008 29.5 35.5H14.5ZM22 29.25C22.6875 29.25 23.2763 29.005 23.7663 28.515C24.2563 28.025 24.5008 27.4367 24.5 26.75C24.5 26.0625 24.255 25.4738 23.765 24.9838C23.275 24.4938 22.6867 24.2492 22 24.25C21.3125 24.25 20.7238 24.495 20.2338 24.985C19.7438 25.475 19.4992 26.0633 19.5 26.75C19.5 27.4375 19.745 28.0263 20.235 28.5163C20.725 29.0063 21.3133 29.2508 22 29.25ZM18.25 18H25.75V15.5C25.75 14.4583 25.3854 13.5729 24.6563 12.8438C23.9271 12.1146 23.0417 11.75 22 11.75C20.9583 11.75 20.0729 12.1146 19.3438 12.8438C18.6146 13.5729 18.25 14.4583 18.25 15.5V18Z" fill="#007EFF"/>
</svg>
