<svg width="20" height="20" viewBox="0 0 20 20" fill="none" xmlns="http://www.w3.org/2000/svg">
<path d="M17.9688 9.375H12.5C12.0027 9.375 11.5258 9.17746 11.1742 8.82583C10.8225 8.47419 10.625 7.99728 10.625 7.5V2.03125C10.625 1.98981 10.6085 1.95007 10.5792 1.92076C10.5499 1.89146 10.5102 1.875 10.4688 1.875H8.38867C8.31572 1.7399 8.23074 1.61164 8.13477 1.4918C7.68437 0.932812 7.01523 0.625 6.25 0.625C4.77813 0.625 3.75 1.78164 3.75 3.4375V9.0625C3.75 10.0391 4.54453 10.625 5.3125 10.625C5.51831 10.6272 5.72251 10.5884 5.91309 10.5106C6.10368 10.4329 6.27682 10.3179 6.42237 10.1724C6.56791 10.0268 6.68292 9.85368 6.76064 9.66309C6.83837 9.47251 6.87725 9.26832 6.875 9.0625V3.125C6.875 2.95924 6.80915 2.80027 6.69194 2.68306C6.57473 2.56585 6.41576 2.5 6.25 2.5C6.08424 2.5 5.92527 2.56585 5.80806 2.68306C5.69085 2.80027 5.625 2.95924 5.625 3.125V9.0625C5.62636 9.1039 5.6192 9.14515 5.60398 9.18368C5.58876 9.22221 5.56579 9.2572 5.53649 9.28649C5.5072 9.31579 5.47221 9.33876 5.43368 9.35398C5.39515 9.3692 5.35391 9.37636 5.3125 9.375C5.22539 9.375 5 9.31875 5 9.0625V3.4375C5 2.68203 5.32852 1.875 6.25 1.875C7.40977 1.875 7.5 3.05273 7.5 3.41328V8.8332C7.5 9.51484 7.28633 10.1312 6.89805 10.5699C6.50391 11.0156 5.95586 11.25 5.3125 11.25C4.66914 11.25 4.12109 11.0156 3.72695 10.5699C3.33867 10.1312 3.125 9.51484 3.125 8.8332V5.625C3.125 5.45924 3.05915 5.30027 2.94194 5.18306C2.82473 5.06585 2.66576 5 2.5 5C2.33424 5 2.17527 5.06585 2.05806 5.18306C1.94085 5.30027 1.875 5.45924 1.875 5.625V8.8332C1.875 10.8453 3.17148 12.3344 5 12.4867V16.875C5 17.538 5.26339 18.1739 5.73223 18.6428C6.20107 19.1116 6.83696 19.375 7.5 19.375H15.625C16.288 19.375 16.9239 19.1116 17.3928 18.6428C17.8616 18.1739 18.125 17.538 18.125 16.875V9.53125C18.125 9.48981 18.1085 9.45007 18.0792 9.42076C18.0499 9.39146 18.0102 9.375 17.9688 9.375Z" fill="#007EFF"/>
<path d="M12.5 8.125H17.5707C17.5861 8.12494 17.6011 8.12032 17.6139 8.11173C17.6267 8.10314 17.6367 8.09096 17.6426 8.07673C17.6485 8.06249 17.65 8.04684 17.647 8.03173C17.644 8.01661 17.6366 8.00272 17.6258 7.9918L12.0082 2.37422C11.9973 2.36336 11.9834 2.35597 11.9683 2.35298C11.9532 2.35 11.9375 2.35154 11.9233 2.35743C11.909 2.36332 11.8969 2.37328 11.8883 2.38607C11.8797 2.39885 11.8751 2.41389 11.875 2.4293V7.5C11.875 7.66576 11.9408 7.82473 12.0581 7.94194C12.1753 8.05915 12.3342 8.125 12.5 8.125Z" fill="#007EFF"/>
</svg>
